<?xml version="1.0" encoding="UTF-8"?>
<svg id="Capa_2" data-name="Capa 2" xmlns="http://www.w3.org/2000/svg" viewBox="0 0 409.98 154.62">
  <defs>
    <style>
      .cls-1 {
        fill: #005aff;
      }
    </style>
  </defs>
  <g id="Capa_1-2" data-name="Capa 1">
    <g>
      <path class="cls-1" d="M61.59,45.67c-.21-8.12-.42-17.61-.32-28.69h-.32c-2.21,9.39-5.17,20.04-7.49,27.84l-7.07,24.79h-14.87l-6.01-24.68c-1.79-7.7-4.01-18.25-5.59-27.95h-.21c-.42,10.02-.84,20.57-1.16,28.69l-1.06,25.42H0L4.32,0h25.63l4.75,19.09c1.9,7.91,4.01,17.4,5.48,26.05h.42c2-8.65,4.32-18.67,6.43-26.16L52.31,0h25.1l3.59,71.09h-18.56l-.84-25.42Z"/>
      <path class="cls-1" d="M119.35,71.09l-1.06-4.54h-.32c-3.69,4.11-8.86,5.7-14.45,5.7-10.55,0-17.09-7.7-17.09-16.35,0-13.92,12.45-20.04,30.06-20.15v-.42c0-2.11-1.58-4.43-8.44-4.43-5.48,0-11.28,1.9-14.66,3.9l-3.37-12.13c3.37-1.69,10.76-4.64,21.52-4.64,17.82,0,24.05,9.91,24.05,22.89v17.51c0,5.17.21,10.02.84,12.66h-17.09ZM117.14,47.36c-7.7,0-12.13,2.21-12.13,6.75,0,3.27,2.22,4.96,5.38,4.96,2.74,0,5.7-1.9,6.54-4.75.21-.84.21-1.79.21-2.74v-4.22Z"/>
      <path class="cls-1" d="M142.8,36.7c0-8.23-.21-13.18-.42-17.51h16.24l.63,9.39h.42c2.74-7.91,9.39-10.55,13.82-10.55,1.69,0,2.43,0,3.8.32v17.82c-1.37-.32-2.85-.53-4.85-.53-5.59,0-9.39,2.32-10.34,6.54-.21.95-.32,2-.32,3.27v25.63h-18.98v-34.38Z"/>
      <path class="cls-1" d="M208.19,4.43v14.77h10.76v13.92h-10.76v14.87c0,6.22,1.48,8.75,6.01,8.75,2,0,3.48-.21,4.53-.42v14.45c-2.21.74-6.43,1.37-11.28,1.37-5.59,0-10.23-1.9-12.97-4.64-3.16-3.16-4.85-8.33-4.85-16.24v-18.14h-6.43v-13.92h6.43v-10.55l18.56-4.22Z"/>
      <path class="cls-1" d="M278.3,44.61c0,18.88-13.5,27.63-28.06,27.63-15.5,0-27.53-9.91-27.53-26.79s10.86-27.42,28.58-27.42c16.24,0,27,10.97,27,26.58ZM242.33,45.14c0,7.7,2.53,13.71,8.44,13.71,5.06,0,7.91-5.38,7.91-13.71,0-7.17-2.32-13.71-8.02-13.71-6.22,0-8.33,6.86-8.33,13.71Z"/>
      <path class="cls-1" d="M284.04,55.16c2.95,1.79,9.7,3.9,14.45,3.9,4.01,0,5.59-.95,5.59-2.85s-1.16-2.74-6.75-4.54c-11.39-3.59-15.29-9.81-15.19-15.82,0-10.34,8.75-17.82,22.36-17.82,6.43,0,12.13,1.37,15.5,2.95l-3.06,12.87c-2.43-1.16-7.28-2.85-11.5-2.85-3.27,0-5.17.84-5.17,2.95,0,1.69,1.69,2.74,7.81,4.75,10.23,3.38,14.13,8.65,14.24,16.14,0,9.91-7.7,17.3-23.73,17.3-7.17,0-13.61-1.48-17.72-3.59l3.16-13.39Z"/>
      <path class="cls-1" d="M61.59,128.04c-.21-8.12-.42-17.61-.32-28.69h-.32c-2.21,9.39-5.17,20.04-7.49,27.84l-7.07,24.79h-14.87l-6.01-24.68c-1.79-7.7-4.01-18.25-5.59-27.95h-.21c-.42,10.02-.84,20.57-1.16,28.69l-1.06,25.42H0l4.32-71.09h25.63l4.75,19.09c1.9,7.91,4.01,17.4,5.48,26.05h.42c2-8.65,4.32-18.67,6.43-26.16l5.27-18.98h25.1l3.59,71.09h-18.56l-.84-25.42Z"/>
      <path class="cls-1" d="M119.35,153.46l-1.06-4.54h-.32c-3.69,4.11-8.86,5.7-14.45,5.7-10.55,0-17.09-7.7-17.09-16.35,0-13.92,12.45-20.04,30.06-20.15v-.42c0-2.11-1.58-4.43-8.44-4.43-5.48,0-11.28,1.9-14.66,3.9l-3.37-12.13c3.37-1.69,10.76-4.64,21.52-4.64,17.82,0,24.05,9.91,24.05,22.89v17.51c0,5.17.21,10.02.84,12.66h-17.09ZM117.14,129.73c-7.7,0-12.13,2.21-12.13,6.75,0,3.27,2.22,4.96,5.38,4.96,2.74,0,5.7-1.9,6.54-4.75.21-.84.21-1.79.21-2.74v-4.22Z"/>
      <path class="cls-1" d="M142.8,119.08c0-8.23-.21-13.18-.42-17.51h16.24l.63,9.39h.42c2.74-7.91,9.39-10.55,13.82-10.55,1.69,0,2.43,0,3.8.32v17.82c-1.37-.32-2.85-.53-4.85-.53-5.59,0-9.39,2.32-10.34,6.54-.21.95-.32,2-.32,3.27v25.63h-18.98v-34.38Z"/>
      <path class="cls-1" d="M208.19,86.8v14.77h10.76v13.92h-10.76v14.87c0,6.22,1.48,8.75,6.01,8.75,2,0,3.48-.21,4.53-.42v14.45c-2.21.74-6.43,1.37-11.28,1.37-5.59,0-10.23-1.9-12.97-4.64-3.16-3.16-4.85-8.33-4.85-16.24v-18.14h-6.43v-13.92h6.43v-10.55l18.56-4.22Z"/>
      <path class="cls-1" d="M243.79,87.22c0,5.06-3.8,9.07-9.81,9.07s-9.6-4.01-9.6-9.07,3.8-8.97,9.7-8.97,9.6,3.8,9.7,8.97Z"/>
      <rect class="cls-1" x="224.59" y="101.57" width="18.98" height="51.89"/>
      <path class="cls-1" d="M250.89,119.18c0-6.86-.21-12.87-.42-17.61h16.35l.84,6.64h.42c1.9-2.74,6.86-7.8,15.5-7.8,12.13,0,18.67,8.23,18.67,22.47v30.59h-18.98v-28.27c0-6.01-2.11-9.49-6.65-9.49-3.69,0-5.38,2.53-6.22,4.54-.42.95-.53,2.43-.53,3.8v29.43h-18.98v-34.28Z"/>
      <path class="cls-1" d="M325.6,134.16c.63,4.11,6.64,6.43,13.29,6.43,4.96,0,9.6-.53,14.24-2l2.43,12.66c-6.22,2.53-12.97,3.27-19.41,3.27-18.25,0-28.58-10.02-28.58-26.47,0-12.13,7.8-27.63,26.89-27.63,16.77,0,23.94,12.34,23.94,26.58,0,3.16-.42,5.91-.74,7.17h-32.06ZM340.9,121.29c0-2.95-1.37-8.44-7.38-8.44-5.59,0-7.8,5.17-8.12,8.44h15.5Z"/>
      <path class="cls-1" d="M363.68,142.6l13.29-16.14c3.16-3.69,5.59-6.33,8.75-9.6v-.32h-20.36v-14.98h43.66v11.29l-12.45,15.19c-3.06,3.59-6.01,7.07-9.28,10.13v.21h22.68v15.08h-46.3v-10.86Z"/>
    </g>
  </g>
</svg>