<?xml version="1.0" encoding="UTF-8"?>
<svg id="Capa_2" data-name="Capa 2" xmlns="http://www.w3.org/2000/svg" viewBox="0 0 252.83 252.83">
  <defs>
    <style>
      .cls-1 {
        fill: #005aff;
      }
    </style>
  </defs>
  <g id="Capa_1-2" data-name="Capa 1">
    <path class="cls-1" d="M187.3,0h-121.76C29.49,0,0,29.49,0,65.54v121.76c0,36.05,29.49,65.54,65.54,65.54h121.76c36.05,0,65.54-29.49,65.54-65.54v-121.76C252.83,29.49,223.34,0,187.3,0ZM208.53,68.35c6.28,0,11.37,5.09,11.37,11.37s-5.09,11.37-11.37,11.37-11.37-5.09-11.37-11.37,5.09-11.37,11.37-11.37ZM173.92,68.35c6.28,0,11.37,5.09,11.37,11.37s-5.09,11.37-11.37,11.37-11.37-5.09-11.37-11.37,5.09-11.37,11.37-11.37ZM97.62,162.33l-.98-29.54c-.25-9.44-.49-20.47-.37-33.34h-.37c-2.57,10.91-6.01,23.29-8.7,32.36l-8.21,28.8h-17.28l-6.99-28.68c-2.08-8.95-4.66-21.2-6.5-32.48h-.24c-.49,11.64-.98,23.9-1.35,33.34l-1.23,29.54h-20.35l5.03-82.61h29.78l5.52,22.18c2.21,9.19,4.66,20.22,6.37,30.27h.49c2.33-10.05,5.02-21.69,7.48-30.4l6.13-22.06h29.17l4.17,82.61h-21.57ZM225.7,162.33h-21.45v-32.23c0-7.48-2.21-11.77-7.11-11.77-3.55,0-5.76,2.33-6.74,5.15-.49,1.23-.61,3.19-.61,4.41v34.44h-21.45v-32.85c0-6.74-2.08-11.15-6.99-11.15-4.04,0-5.88,2.94-6.74,5.02-.61,1.35-.61,2.94-.61,4.41v34.56h-21.45v-39.83c0-7.97-.25-14.95-.49-20.47h18.51l.86,7.48h.49c2.21-2.94,7.48-8.83,17.77-8.83,7.72,0,13.73,3.55,16.3,9.56h.24c2.45-3.06,5.15-5.52,8.33-7.11,3.06-1.59,6.62-2.45,10.66-2.45,12.99,0,20.47,9.44,20.47,26.11v35.54Z"/>
  </g>
</svg>
