<?xml version="1.0" encoding="UTF-8"?>
<svg width="1200" height="630" viewBox="0 0 1200 630" xmlns="http://www.w3.org/2000/svg">
  <defs>
    <linearGradient id="bgGradient" x1="0%" y1="0%" x2="100%" y2="100%">
      <stop offset="0%" style="stop-color:#1e3a8a;stop-opacity:1" />
      <stop offset="50%" style="stop-color:#1e40af;stop-opacity:1" />
      <stop offset="100%" style="stop-color:#1e3a8a;stop-opacity:1" />
    </linearGradient>
  </defs>
  
  <!-- Background -->
  <rect width="1200" height="630" fill="url(#bgGradient)"/>
  
  <!-- Logo Martos Martinez centrado -->
  <g transform="translate(300, 200) scale(1.2)">
    <g transform="scale(0.8)">
      <!-- Logo MM -->
      <g transform="translate(0, 50)">
        <path fill="#00D4FF" d="M187.3,0h-121.76C29.49,0,0,29.49,0,65.54v121.76c0,36.05,29.49,65.54,65.54,65.54h121.76c36.05,0,65.54-29.49,65.54-65.54v-121.76C252.83,29.49,223.34,0,187.3,0ZM208.53,68.35c6.28,0,11.37,5.09,11.37,11.37s-5.09,11.37-11.37,11.37-11.37-5.09-11.37-11.37,5.09-11.37,11.37-11.37ZM173.92,68.35c6.28,0,11.37,5.09,11.37,11.37s-5.09,11.37-11.37,11.37-11.37-5.09-11.37-11.37,5.09-11.37,11.37-11.37ZM97.62,162.33l-.98-29.54c-.25-9.44-.49-20.47-.37-33.34h-.37c-2.57,10.91-6.01,23.29-8.7,32.36l-8.21,28.8h-17.28l-6.99-28.68c-2.08-8.95-4.66-21.2-6.5-32.48h-.24c-.49,11.64-.98,23.9-1.35,33.34l-1.23,29.54h-20.35l5.03-82.61h29.78l5.52,22.18c2.21,9.19,4.66,20.22,6.37,30.27h.49c2.33-10.05,5.02-21.69,7.48-30.4l6.13-22.06h29.17l4.17,82.61h-21.57ZM225.7,162.33h-21.45v-32.23c0-7.48-2.21-11.77-7.11-11.77-3.55,0-5.76,2.33-6.74,5.15-.49,1.23-.61,3.19-.61,4.41v34.44h-21.45v-32.85c0-6.74-2.08-11.15-6.99-11.15-4.04,0-5.88,2.94-6.74,5.02-.61,1.35-.61,2.94-.61,4.41v34.56h-21.45v-39.83c0-7.97-.25-14.95-.49-20.47h18.51l.86,7.48h.49c2.21-2.94,7.48-8.83,17.77-8.83,7.72,0,13.73,3.55,16.3,9.56h.24c2.45-3.06,5.15-5.52,8.33-7.11,3.06-1.59,6.62-2.45,10.66-2.45,12.99,0,20.47,9.44,20.47,26.11v35.54Z"/>
      </g>
      
      <!-- Texto Martos Martinez -->
      <g transform="translate(280, 80)">
        <g fill="#FFFFFF">
          <path d="M61.59,45.67c-.21-8.12-.42-17.61-.32-28.69h-.32c-2.21,9.39-5.17,20.04-7.49,27.84l-7.07,24.79h-14.87l-6.01-24.68c-1.79-7.7-4.01-18.25-5.59-27.95h-.21c-.42,10.02-.84,20.57-1.16,28.69l-1.06,25.42H0L4.32,0h25.63l4.75,19.09c1.9,7.91,4.01,17.4,5.48,26.05h.42c2-8.65,4.32-18.67,6.43-26.16L52.31,0h25.1l3.59,71.09h-18.56l-.84-25.42Z"/>
          <path d="M119.35,71.09l-1.06-4.54h-.32c-3.69,4.11-8.86,5.7-14.45,5.7-10.55,0-17.09-7.7-17.09-16.35,0-13.92,12.45-20.04,30.06-20.15v-.42c0-2.11-1.58-4.43-8.44-4.43-5.48,0-11.28,1.9-14.66,3.9l-3.37-12.13c3.37-1.69,10.76-4.64,21.52-4.64,17.82,0,24.05,9.91,24.05,22.89v17.51c0,5.17.21,10.02.84,12.66h-17.09ZM117.14,47.36c-7.7,0-12.13,2.21-12.13,6.75,0,3.27,2.22,4.96,5.38,4.96,2.74,0,5.7-1.9,6.54-4.75.21-.84.21-1.79.21-2.74v-4.22Z"/>
          <path d="M142.8,36.7c0-8.23-.21-13.18-.42-17.51h16.24l.63,9.39h.42c2.74-7.91,9.39-10.55,13.82-10.55,1.69,0,2.43,0,3.8.32v17.82c-1.37-.32-2.85-.53-4.85-.53-5.59,0-9.39,2.32-10.34,6.54-.21.95-.32,2-.32,3.27v25.63h-18.98v-34.38Z"/>
          <path d="M208.19,4.43v14.77h10.76v13.92h-10.76v14.87c0,6.22,1.48,8.75,6.01,8.75,2,0,3.48-.21,4.53-.42v14.45c-2.21.74-6.43,1.37-11.28,1.37-5.59,0-10.23-1.9-12.97-4.64-3.16-3.16-4.85-8.33-4.85-16.24v-18.14h-6.43v-13.92h6.43v-10.55l18.56-4.22Z"/>
          <path d="M278.3,44.61c0,18.88-13.5,27.63-28.06,27.63-15.5,0-27.53-9.91-27.53-26.79s10.86-27.42,28.58-27.42c16.24,0,27,10.97,27,26.58ZM242.33,45.14c0,7.7,2.53,13.71,8.44,13.71,5.06,0,7.91-5.38,7.91-13.71,0-7.17-2.32-13.71-8.02-13.71-6.22,0-8.33,6.86-8.33,13.71Z"/>
          <path d="M284.04,55.16c2.95,1.79,9.7,3.9,14.45,3.9,4.01,0,5.59-.95,5.59-2.85s-1.16-2.74-6.75-4.54c-11.39-3.59-15.29-9.81-15.19-15.82,0-10.34,8.75-17.82,22.36-17.82,6.43,0,12.13,1.37,15.5,2.95l-3.06,12.87c-2.43-1.16-7.28-2.85-11.5-2.85-3.27,0-5.17.84-5.17,2.95,0,1.69,1.69,2.74,7.81,4.75,10.23,3.38,14.13,8.65,14.24,16.14,0,9.91-7.7,17.3-23.73,17.3-7.17,0-13.61-1.48-17.72-3.59l3.16-13.39Z"/>
        </g>
      </g>
    </g>
  </g>
  
  <!-- Texto descriptivo -->
  <text x="600" y="450" text-anchor="middle" fill="#FFFFFF" font-family="Arial, sans-serif" font-size="32" font-weight="bold">Marketing Inmobiliario Especializado</text>
  <text x="600" y="490" text-anchor="middle" fill="#00D4FF" font-family="Arial, sans-serif" font-size="24">Potenciá tu marca inmobiliaria en 3 pasos</text>
</svg>
